<?xml version="1.0" encoding="UTF-8" standalone="no"?>
<svg
   xmlns:dc="http://purl.org/dc/elements/1.1/"
   xmlns:cc="http://creativecommons.org/ns#"
   xmlns:rdf="http://www.w3.org/1999/02/22-rdf-syntax-ns#"
   xmlns:svg="http://www.w3.org/2000/svg"
   xmlns="http://www.w3.org/2000/svg"
   xmlns:sodipodi="http://sodipodi.sourceforge.net/DTD/sodipodi-0.dtd"
   xmlns:inkscape="http://www.inkscape.org/namespaces/inkscape"
   version="1.1"
   id="svg2"
   viewBox="0 0 316.40001 490.29998"
   height="138.37355mm"
   width="89.295113mm"
   inkscape:version="0.91 r13725"
   sodipodi:docname="partner_bronze.svg">
  <sodipodi:namedview
     pagecolor="#ffffff"
     bordercolor="#666666"
     borderopacity="1"
     objecttolerance="10"
     gridtolerance="10"
     guidetolerance="10"
     inkscape:pageopacity="0"
     inkscape:pageshadow="2"
     inkscape:window-width="2558"
     inkscape:window-height="1405"
     id="namedview4364"
     showgrid="false"
     inkscape:zoom="2.471956"
     inkscape:cx="157.79546"
     inkscape:cy="245.14999"
     inkscape:window-x="1080"
     inkscape:window-y="273"
     inkscape:window-maximized="0"
     inkscape:current-layer="svg2" />
  <defs
     id="defs4" />
  <metadata
     id="metadata7">
    <rdf:RDF>
      <cc:Work
         rdf:about="">
        <dc:format>image/svg+xml</dc:format>
        <dc:type
           rdf:resource="http://purl.org/dc/dcmitype/StillImage" />
        <dc:title></dc:title>
      </cc:Work>
    </rdf:RDF>
  </metadata>
  <g
     transform="translate(-241.79999,-284.35506)"
     id="layer1"
     style="fill:#cd7f32;fill-opacity:1">
    <g
       style="fill:#cd7f32;fill-opacity:1"
       transform="translate(154.84999,284.35506)"
       id="g3558">
      <g
         style="fill:#cd7f32;fill-opacity:1"
         id="g3518">
        <path
           style="fill:#cd7f32;fill-opacity:1"
           d="m 184.25,0 106.7,190.5 c -10.8,-3.1 -22.1,-5.1 -33.7,-5.9 L 153.85,0 l 30.4,0 z m 38,185.9 L 118.15,0 86.95,0 194.45,192 c 8.9,-2.8 18.2,-4.8 27.8,-6.1 z m 75,-52.2 15.6,27.9 90.5,-161.6 -31.2,0 -74.9,133.7 z m 8.8,-133.7 -41.8,74.7 15.2,27.1 57,-101.8 c 0,0 -30.4,0 -30.4,0 z m 76.9,352.5 c 0,76.1 -61.7,137.8 -137.8,137.8 -76.1,0 -137.8,-61.7 -137.8,-137.8 0,-76.1 61.7,-137.8 137.8,-137.8 76.1,0 137.8,61.7 137.8,137.8 z m -150.7,-35.8 c 0,-4.9 1.2,-8.9 3.7,-12.1 2.4,-3.2 6.2,-4.7 11.3,-4.7 5,0 9,1.9 12.1,5.8 2.4,3.1 3.9,7.4 4.3,13 0.2,2.6 2.5,4.4 5.1,4.4 l 25.8,-0.4 c 2.8,0 5.2,-2.4 5,-5.2 -0.7,-11.3 -4.3,-20.7 -10.9,-28.4 -6.8,-7.9 -15.9,-13 -27.1,-15.3 l 0,-19.5 c 0,-2.4 -1.9,-4.3 -4.3,-4.3 l -15.7,0 c -2.4,0 -4.3,1.9 -4.3,4.3 l 0,18.9 c -11.9,1.7 -21.7,6.1 -29.1,13.3 -8.2,7.9 -12.3,17.9 -12.3,30 0,13.4 3.9,23.6 11.6,30.5 7.7,6.9 20.1,13.8 37,20.5 7,3 11.8,6.1 14.5,9.2 2.7,3.1 4.1,7.5 4.1,13.2 0,4.9 -1.3,8.8 -4,11.8 -2.7,3 -6.6,4.5 -11.7,4.5 -6.2,0 -11.2,-2 -15.1,-5.9 -3.2,-3.2 -5.1,-8.1 -5.6,-14.7 -0.2,-2.6 -2.5,-4.5 -5.1,-4.4 l -25.8,0.5 c -2.8,0.1 -5.1,2.4 -5,5.2 0.7,13.7 5.1,24.2 13.3,31.7 8.9,8.1 19.9,12.8 33.2,14.4 l 0,17.6 c 0,2.4 1.9,4.3 4.3,4.3 l 15.7,0 c 2.4,0 4.3,-1.9 4.3,-4.3 l 0,-18.2 c 10.6,-2 19.3,-6.1 26,-12.6 7.9,-7.6 11.8,-17.7 11.8,-30.2 0,-13.1 -3.9,-23.2 -11.7,-30.3 -7.8,-7.1 -20.1,-14.2 -36.7,-21.3 -7.2,-3.2 -12.1,-6.3 -14.7,-9.4 -2.7,-2.9 -4,-6.9 -4,-11.9 z"
           id="path3520" />
      </g>
      <g
         style="fill:#cd7f32;fill-opacity:1"
         id="g3522" />
      <g
         style="fill:#cd7f32;fill-opacity:1"
         id="g3524" />
      <g
         style="fill:#cd7f32;fill-opacity:1"
         id="g3526" />
      <g
         style="fill:#cd7f32;fill-opacity:1"
         id="g3528" />
      <g
         style="fill:#cd7f32;fill-opacity:1"
         id="g3530" />
      <g
         style="fill:#cd7f32;fill-opacity:1"
         id="g3532" />
      <g
         style="fill:#cd7f32;fill-opacity:1"
         id="g3534" />
      <g
         style="fill:#cd7f32;fill-opacity:1"
         id="g3536" />
      <g
         style="fill:#cd7f32;fill-opacity:1"
         id="g3538" />
      <g
         style="fill:#cd7f32;fill-opacity:1"
         id="g3540" />
      <g
         style="fill:#cd7f32;fill-opacity:1"
         id="g3542" />
      <g
         style="fill:#cd7f32;fill-opacity:1"
         id="g3544" />
      <g
         style="fill:#cd7f32;fill-opacity:1"
         id="g3546" />
      <g
         style="fill:#cd7f32;fill-opacity:1"
         id="g3548" />
      <g
         style="fill:#cd7f32;fill-opacity:1"
         id="g3550" />
    </g>
  </g>
</svg>
